<svg width="24" height="25" viewBox="0 0 24 25" fill="none" xmlns="http://www.w3.org/2000/svg">
<g id="material-symbols:add-circle-outline-rounded">
<path id="Vector" d="M11 13.5312V16.5312C11 16.8146 11.096 17.0522 11.288 17.2442C11.48 17.4362 11.7173 17.5319 12 17.5312C12.2833 17.5312 12.521 17.4353 12.713 17.2432C12.905 17.0512 13.0007 16.8139 13 16.5312V13.5312H16C16.2833 13.5312 16.521 13.4353 16.713 13.2432C16.905 13.0512 17.0007 12.8139 17 12.5312C17 12.2479 16.904 12.0103 16.712 11.8182C16.52 11.6262 16.2827 11.5306 16 11.5312H13V8.53125C13 8.24792 12.904 8.01025 12.712 7.81825C12.52 7.62625 12.2827 7.53058 12 7.53125C11.7167 7.53125 11.479 7.62725 11.287 7.81925C11.095 8.01125 10.9993 8.24858 11 8.53125V11.5312H8C7.71667 11.5312 7.479 11.6272 7.287 11.8193C7.095 12.0113 6.99933 12.2486 7 12.5312C7 12.8146 7.096 13.0522 7.288 13.2443C7.48 13.4363 7.71733 13.5319 8 13.5312H11ZM12 22.5312C10.6167 22.5312 9.31667 22.2686 8.1 21.7432C6.88333 21.2179 5.825 20.5056 4.925 19.6063C4.025 18.7063 3.31267 17.6479 2.788 16.4312C2.26333 15.2146 2.00067 13.9146 2 12.5312C2 11.1479 2.26267 9.84792 2.788 8.63125C3.31333 7.41458 4.02567 6.35625 4.925 5.45625C5.825 4.55625 6.88333 3.84392 8.1 3.31925C9.31667 2.79458 10.6167 2.53192 12 2.53125C13.3833 2.53125 14.6833 2.79392 15.9 3.31925C17.1167 3.84458 18.175 4.55692 19.075 5.45625C19.975 6.35625 20.6877 7.41458 21.213 8.63125C21.7383 9.84792 22.0007 11.1479 22 12.5312C22 13.9146 21.7373 15.2146 21.212 16.4312C20.6867 17.6479 19.9743 18.7063 19.075 19.6063C18.175 20.5063 17.1167 21.2189 15.9 21.7442C14.6833 22.2696 13.3833 22.5319 12 22.5312ZM12 20.5312C14.2333 20.5312 16.125 19.7562 17.675 18.2062C19.225 16.6562 20 14.7646 20 12.5312C20 10.2979 19.225 8.40625 17.675 6.85625C16.125 5.30625 14.2333 4.53125 12 4.53125C9.76667 4.53125 7.875 5.30625 6.325 6.85625C4.775 8.40625 4 10.2979 4 12.5312C4 14.7646 4.775 16.6562 6.325 18.2062C7.875 19.7562 9.76667 20.5312 12 20.5312Z" fill="#0080BB"/>
</g>
</svg>
